<svg xmlns="http://www.w3.org/2000/svg" viewBox="0 0 128 128" id="articles"><path d="M47.1 68.8h24.2c1.3 0 2.4-1.1 2.4-2.4v-29c0-1.3-1.1-2.4-2.4-2.4H47.1c-1.3 0-2.4 1.1-2.4 2.4v29c0 1.4 1.1 2.4 2.4 2.4zm2.4-29h19.3V64H49.5V39.8zm-2.4 62.9h53.1c1.3 0 2.4-1.1 2.4-2.4 0-1.3-1.1-2.4-2.4-2.4H47.1c-1.3 0-2.4 1.1-2.4 2.4 0 1.3 1.1 2.4 2.4 2.4zm0-24.2h53.1c1.3 0 2.4-1.1 2.4-2.4 0-1.3-1.1-2.4-2.4-2.4H47.1c-1.3 0-2.4 1.1-2.4 2.4 0 1.3 1.1 2.4 2.4 2.4zm0 12.1h53.1c1.3 0 2.4-1.1 2.4-2.4 0-1.3-1.1-2.4-2.4-2.4H47.1c-1.3 0-2.4 1.1-2.4 2.4 0 1.3 1.1 2.4 2.4 2.4zm53.1-29H80.9c-1.3 0-2.4 1.1-2.4 2.4 0 1.3 1.1 2.4 2.4 2.4h19.3c1.3 0 2.4-1.1 2.4-2.4.1-1.3-1-2.4-2.4-2.4zm0-24.2H80.9c-1.3 0-2.4 1.1-2.4 2.4 0 1.3 1.1 2.4 2.4 2.4h19.3c1.3 0 2.4-1.1 2.4-2.4.1-1.3-1-2.4-2.4-2.4zm0 12.1H80.9c-1.3 0-2.4 1.1-2.4 2.4s1.1 2.4 2.4 2.4h19.3c1.3 0 2.4-1.1 2.4-2.4s-1-2.4-2.4-2.4zM47.1 30.2h53.1c1.3 0 2.4-1.1 2.4-2.4 0-1.3-1.1-2.4-2.4-2.4H47.1c-1.3 0-2.4 1.1-2.4 2.4 0 1.3 1.1 2.4 2.4 2.4z"></path><path d="M112.3 13.3H35c-1.3 0-2.4 1.1-2.4 2.4v12.1H15.7c-1.3 0-2.4 1.1-2.4 2.4v72.5c0 6.7 5.4 12.1 12.1 12.1h77.3c6.7 0 12.1-5.4 12.1-12.1v-87c-.1-1.4-1.1-2.4-2.5-2.4zm-94.2 89.4V32.6h14.5v70.1c0 .6-.1 1.2-.2 1.8-.8 3.2-3.7 5.4-7 5.4-4.1 0-7.3-3.2-7.3-7.2zm91.8 0c0 4-3.3 7.2-7.2 7.2H35c.1-.1.1-.2.1-.2.3-.4.5-.8.8-1.3l.3-.6c.3-.7.6-1.3.8-2.1.3-1 .4-2 .4-3.1V18.1h72.5v84.6z"></path></svg>