<svg xmlns="http://www.w3.org/2000/svg" fill-rule="evenodd" stroke-linejoin="round" stroke-miterlimit="2" clip-rule="evenodd" viewBox="0 0 33 33" id="member"><g transform="translate(.618 .136)"><rect width="32" height="32" fill="none"></rect><path d="M194.618,94.136C194.618,93.34 194.302,92.577 193.739,92.015C193.177,91.452 192.414,91.136 191.618,91.136C186.775,91.136 174.461,91.136 169.618,91.136C168.822,91.136 168.059,91.452 167.497,92.015C166.934,92.577 166.618,93.34 166.618,94.136C166.618,97.599 166.618,104.673 166.618,108.136C166.618,108.932 166.934,109.695 167.497,110.257C168.059,110.82 168.822,111.136 169.618,111.136C174.461,111.136 186.775,111.136 191.618,111.136C192.414,111.136 193.177,110.82 193.739,110.257C194.302,109.695 194.618,108.932 194.618,108.136L194.618,94.136ZM192.618,94.136L192.618,108.136C192.618,108.401 192.513,108.656 192.325,108.843C192.137,109.031 191.883,109.136 191.618,109.136C186.775,109.136 174.461,109.136 169.618,109.136C169.353,109.136 169.098,109.031 168.911,108.843C168.723,108.656 168.618,108.401 168.618,108.136C168.618,104.673 168.618,97.599 168.618,94.136C168.618,93.871 168.723,93.616 168.911,93.429C169.098,93.241 169.353,93.136 169.618,93.136C174.461,93.136 186.775,93.136 191.618,93.136C191.883,93.136 192.137,93.241 192.325,93.429C192.513,93.616 192.618,93.871 192.618,94.136ZM175.618,101.136C173.962,101.136 172.618,99.792 172.618,98.136C172.618,96.48 173.962,95.136 175.618,95.136C177.274,95.136 178.618,96.48 178.618,98.136C178.618,99.792 177.274,101.136 175.618,101.136C178.377,101.136 180.618,103.376 180.618,106.136C180.618,106.688 180.17,107.136 179.618,107.136L171.618,107.136C171.066,107.136 170.618,106.688 170.618,106.136C170.618,103.376 172.858,101.136 175.618,101.136ZM178.447,105.136C178.035,103.971 176.923,103.136 175.618,103.136C174.313,103.136 173.201,103.971 172.789,105.136L178.447,105.136ZM182.618,104.136L187.618,104.136C188.17,104.136 188.618,103.688 188.618,103.136C188.618,102.584 188.17,102.136 187.618,102.136L182.618,102.136C182.066,102.136 181.618,102.584 181.618,103.136C181.618,103.688 182.066,104.136 182.618,104.136ZM182.618,100.136L189.585,100.136C190.136,100.136 190.585,99.688 190.585,99.136C190.585,98.584 190.136,98.136 189.585,98.136L182.618,98.136C182.066,98.136 181.618,98.584 181.618,99.136C181.618,99.688 182.066,100.136 182.618,100.136ZM175.618,97.136C176.17,97.136 176.618,97.584 176.618,98.136C176.618,98.688 176.17,99.136 175.618,99.136C175.066,99.136 174.618,98.688 174.618,98.136C174.618,97.584 175.066,97.136 175.618,97.136Z" transform="translate(-164.618 -85.136)"></path></g></svg>