<svg xmlns="http://www.w3.org/2000/svg" viewBox="0 0 1024 1024" id="products"><path d="M522.1 556.8c-26.6-14-53.1-28.1-79.7-42.1-42.1-22.2-84.2-44.5-126.3-66.7-9.6-5.1-19.3-10.2-28.9-15.3 3.3 5.8 6.6 11.5 9.9 17.3V202.1c-10 5.8-20.1 11.5-30.1 17.3 26.6 14 53.1 28.1 79.7 42.1 42.1 22.3 84.2 44.5 126.3 66.8 9.6 5.1 19.3 10.2 28.9 15.3-3.3-5.8-6.6-11.5-9.9-17.3v247.8c0 10.5 9.2 20.5 20 20s20-8.8 20-20V326.3c0-6.8-3.8-14-9.9-17.3-26.6-14-53.1-28.1-79.7-42.1-42.1-22.3-84.2-44.5-126.3-66.8-9.6-5.1-19.3-10.2-28.9-15.3-13.2-7-30.1 1.6-30.1 17.3V450c0 6.8 3.8 14 9.9 17.3 26.6 14 53.1 28.1 79.7 42.1 42.1 22.2 84.2 44.5 126.3 66.7 9.6 5.1 19.3 10.2 28.9 15.3 9.2 4.9 22.2 2.7 27.4-7.2 4.9-9.3 2.7-22.2-7.2-27.4z"></path><path d="M736.9 432.7c-26.6 14-53.1 28.1-79.7 42.1-42.1 22.2-84.3 44.5-126.4 66.7-9.6 5.1-19.3 10.2-28.9 15.3 10 5.8 20.1 11.5 30.1 17.3V326.3c-3.3 5.8-6.6 11.5-9.9 17.3 26.6-14 53.1-28.1 79.7-42.1 42.1-22.3 84.3-44.5 126.4-66.8 9.6-5.1 19.3-10.2 28.9-15.3-10-5.8-20.1-11.5-30.1-17.3V450c0 10.5 9.2 20.5 20 20s20-8.8 20-20V202.1c0-15.7-16.9-24.3-30.1-17.3-26.6 14-53.1 28.1-79.7 42.1-42.1 22.3-84.3 44.5-126.4 66.8-9.6 5.1-19.3 10.2-28.9 15.3-6.2 3.2-9.9 10.5-9.9 17.3v247.8c0 15.7 16.9 24.3 30.1 17.3 26.6-14 53.1-28.1 79.7-42.1 42.1-22.2 84.3-44.5 126.4-66.7 9.6-5.1 19.3-10.2 28.9-15.3 9.3-4.9 12.9-18.6 7.2-27.4-6.1-9.4-17.5-12.4-27.4-7.2z"></path><path d="M736.9 184.8c-26.6 14-53.1 28.1-79.7 42.1-42.1 22.3-84.3 44.5-126.4 66.8-9.6 5.1-19.3 10.2-28.9 15.3h20.2c-26.6-14-53.1-28.1-79.7-42.1-42.1-22.3-84.2-44.5-126.3-66.8-9.6-5.1-19.3-10.2-28.9-15.3v34.5c26.6-14 53.1-28 79.7-42.1 42.1-22.2 84.2-44.5 126.3-66.7 9.6-5.1 19.3-10.2 28.9-15.3h-20.2c26.6 14 53.1 28 79.7 42.1 42.1 22.2 84.3 44.5 126.4 66.7 9.6 5.1 19.3 10.2 28.9 15.3 9.2 4.9 22.2 2.7 27.4-7.2 4.9-9.2 2.7-22.1-7.2-27.4-26.8-14.2-53.7-28.3-80.5-42.5-42.1-22.3-84.3-44.5-126.4-66.8-9.3-4.9-18.4-10-27.8-14.7-8.7-4.3-16.1-2.4-23.7 1.6-4.8 2.5-9.6 5-14.3 7.6-40.2 21.2-80.3 42.4-120.5 63.6-31.7 16.8-63.9 32.9-95.3 50.3-.5.3-1 .5-1.5.8-13 6.9-13 27.7 0 34.5 26.8 14.2 53.7 28.4 80.5 42.5 42.1 22.3 84.3 44.5 126.4 66.8 9.3 4.9 18.4 10 27.8 14.7 8.7 4.3 16.1 2.4 23.7-1.6 4.8-2.5 9.6-5.1 14.3-7.6 40.2-21.2 80.3-42.4 120.5-63.7 31.7-16.8 63.9-33 95.3-50.3.5-.3 1-.5 1.5-.8 9.3-4.9 12.9-18.6 7.2-27.4-6.1-9.2-17.5-12.2-27.4-6.9z"></path><path d="M619.3 122.8c-26.5 14-53.1 28.1-79.6 42.1-42.1 22.3-84.2 44.5-126.3 66.8-9.6 5.1-19.3 10.2-28.9 15.3-9.3 4.9-12.9 18.6-7.2 27.4 6.1 9.4 17.5 12.4 27.4 7.2 26.5-14 53.1-28.1 79.6-42.1 42.1-22.3 84.2-44.5 126.3-66.8 9.6-5.1 19.3-10.2 28.9-15.3 9.3-4.9 12.9-18.6 7.2-27.4-6.1-9.5-17.5-12.5-27.4-7.2zM287.1 928.8c-26.5-14-53.1-28-79.6-42-42.1-22.2-84.2-44.5-126.3-66.7-9.6-5.1-19.3-10.2-28.9-15.3 3.3 5.8 6.6 11.5 9.9 17.3V574.3c-10 5.8-20.1 11.5-30.1 17.3 26.5 14 53.1 28.1 79.6 42.1 42.1 22.3 84.2 44.5 126.3 66.8 9.6 5.1 19.3 10.2 28.9 15.3-3.3-5.8-6.6-11.5-9.9-17.3V946.2c0 10.5 9.2 20.5 20 20s20-8.8 20-20V698.5c0-6.8-3.8-14-9.9-17.3C260.5 667 234 653 207.5 639c-42.1-22.3-84.2-44.5-126.3-66.8-9.6-5.1-19.3-10.2-28.9-15.3-13.2-7-30.1 1.6-30.1 17.3V822c0 6.8 3.8 14 9.9 17.3 26.5 14 53.1 28 79.6 42 42.1 22.2 84.2 44.5 126.3 66.7 9.6 5.1 19.3 10.2 28.9 15.3 9.2 4.9 22.2 2.7 27.4-7.2 4.8-9.2 2.7-22.1-7.2-27.3z"></path><path d="M501.9 804.7c-26.6 14-53.1 28-79.7 42-42.1 22.2-84.3 44.5-126.4 66.7-9.6 5.1-19.3 10.2-28.9 15.3 10 5.8 20.1 11.5 30.1 17.3V698.3c-3.3 5.8-6.6 11.5-9.9 17.3 26.6-14 53.1-28.1 79.7-42.1 42.1-22.3 84.3-44.5 126.4-66.8 9.6-5.1 19.3-10.2 28.9-15.3-10-5.8-20.1-11.5-30.1-17.3V822c0 10.5 9.2 20.5 20 20s20-8.8 20-20V574.1c0-15.6-16.9-24.3-30.1-17.3-26.6 14-53.1 28.1-79.7 42.1-42.1 22.3-84.3 44.5-126.4 66.8-9.6 5.1-19.3 10.2-28.9 15.3-6.2 3.3-9.9 10.5-9.9 17.3V946c0 15.7 16.9 24.3 30.1 17.3 26.6-14 53.1-28 79.7-42 42.1-22.2 84.3-44.5 126.4-66.7 9.6-5.1 19.3-10.2 28.9-15.3 9.3-4.9 12.9-18.6 7.2-27.4-6.1-9.4-17.5-12.4-27.4-7.2z"></path><path d="M501.9 556.8c-26.6 14-53.1 28.1-79.7 42.1-42.1 22.3-84.3 44.5-126.4 66.8-9.6 5.1-19.3 10.2-28.9 15.3h20.2c-26.6-14-53.1-28-79.6-42-42.1-22.3-84.2-44.5-126.3-66.8-9.6-5.1-19.3-10.2-28.9-15.3v34.5c26.6-14 53.1-28.1 79.7-42.1 42.1-22.3 84.2-44.5 126.3-66.8 9.6-5.1 19.3-10.2 28.9-15.3H267c26.6 14 53.1 28.1 79.7 42.1 42.1 22.2 84.2 44.5 126.3 66.7 9.6 5.1 19.3 10.2 28.9 15.3 9.2 4.9 22.2 2.7 27.4-7.2 4.9-9.2 2.7-22.1-7.2-27.4-26.8-14.2-53.7-28.3-80.5-42.5-42.1-22.3-84.3-44.5-126.4-66.8-9.3-4.9-18.4-10-27.8-14.7-8.7-4.3-16.1-2.4-23.7 1.6-4.8 2.5-9.6 5.1-14.3 7.6-40.2 21.2-80.3 42.5-120.5 63.7-31.7 16.8-63.9 33-95.3 50.4-.5.3-1 .5-1.5.8-13 6.9-13 27.7 0 34.5 26.8 14.2 53.7 28.4 80.5 42.5 42.1 22.3 84.2 44.5 126.4 66.8 9.3 4.9 18.4 10 27.8 14.7 8.7 4.3 16.1 2.4 23.7-1.6 4.8-2.5 9.6-5.1 14.3-7.6 40.2-21.2 80.3-42.5 120.5-63.7 31.7-16.8 63.9-33 95.3-50.4.5-.3 1-.5 1.5-.8 9.3-4.9 12.9-18.6 7.2-27.4-6.1-9.2-17.5-12.2-27.4-7z"></path><path d="M384.3 494.9c-26.5 14-53.1 28.1-79.6 42.1-42.1 22.3-84.2 44.5-126.3 66.8-9.6 5.1-19.3 10.2-28.9 15.3-9.3 4.9-12.9 18.6-7.2 27.4 6.1 9.4 17.5 12.4 27.4 7.2 26.5-14 53.1-28.1 79.6-42.1 42.1-22.3 84.2-44.5 126.3-66.8 9.6-5.1 19.3-10.2 28.9-15.3 9.3-4.9 12.9-18.6 7.2-27.4-6.1-9.4-17.5-12.4-27.4-7.2zM757.1 928.8c-26.6-14-53.1-28-79.7-42-42.1-22.2-84.3-44.5-126.4-66.7-9.6-5.1-19.3-10.2-28.9-15.3 3.3 5.8 6.6 11.5 9.9 17.3V574.2c-10 5.8-20.1 11.5-30.1 17.3 26.6 14 53.1 28.1 79.7 42.1 42.1 22.3 84.3 44.5 126.4 66.8 9.6 5.1 19.3 10.2 28.9 15.3-3.3-5.8-6.6-11.5-9.9-17.3V946.1c0 10.5 9.2 20.5 20 20s20-8.8 20-20V698.4c0-6.8-3.8-14-9.9-17.3-26.6-14-53.1-28.1-79.7-42.1-42.1-22.3-84.3-44.5-126.4-66.8-9.6-5.1-19.3-10.2-28.9-15.3-13.2-7-30.1 1.6-30.1 17.3v247.9c0 6.8 3.8 14 9.9 17.3 26.6 14 53.1 28 79.7 42 42.1 22.2 84.3 44.5 126.4 66.7 9.6 5.1 19.3 10.2 28.9 15.3 9.2 4.9 22.2 2.7 27.4-7.2 4.9-9.3 2.7-22.2-7.2-27.4z"></path><path d="M971.8 804.7c-26.5 14-53.1 28-79.6 42-42.1 22.2-84.2 44.5-126.3 66.7-9.6 5.1-19.3 10.2-28.9 15.3 10 5.8 20.1 11.5 30.1 17.3V698.3c-3.3 5.8-6.6 11.5-9.9 17.3 26.5-14 53.1-28.1 79.6-42.1 42.1-22.3 84.2-44.5 126.3-66.8 9.6-5.1 19.3-10.2 28.9-15.3-10-5.8-20.1-11.5-30.1-17.3v247.8c0 10.5 9.2 20.5 20 20s20-8.8 20-20V574.1c0-15.7-16.9-24.3-30.1-17.3-26.5 14-53.1 28.1-79.6 42.1-42.1 22.3-84.2 44.5-126.3 66.8-9.6 5.1-19.3 10.2-28.9 15.3-6.2 3.3-9.9 10.5-9.9 17.3V946c0 15.7 16.9 24.3 30.1 17.3 26.5-14 53.1-28 79.6-42 42.1-22.2 84.2-44.5 126.3-66.7 9.6-5.1 19.3-10.2 28.9-15.3 9.3-4.9 12.9-18.6 7.2-27.4-6.1-9.4-17.5-12.4-27.4-7.2z"></path><path d="M971.8 556.9c-26.5 14-53.1 28.1-79.6 42.1-42.1 22.3-84.2 44.5-126.3 66.8-9.6 5.1-19.3 10.2-28.9 15.3h20.2c-26.6-14-53.1-28.1-79.7-42.1-42.1-22.3-84.3-44.5-126.4-66.8-9.6-5.1-19.3-10.2-28.9-15.3v34.5c26.6-14 53.1-28.1 79.7-42.1 42.1-22.2 84.3-44.5 126.4-66.7 9.6-5.1 19.3-10.2 28.9-15.3H737c26.5 14 53.1 28.1 79.6 42.1 42.1 22.3 84.2 44.5 126.3 66.8 9.6 5.1 19.3 10.2 28.9 15.3 9.2 4.9 22.2 2.7 27.4-7.2 4.9-9.2 2.7-22.1-7.2-27.4-26.8-14.2-53.7-28.4-80.5-42.6-42.1-22.3-84.2-44.5-126.4-66.8-9.3-4.9-18.4-10-27.8-14.7-8.7-4.3-16.1-2.4-23.7 1.6-4.8 2.5-9.6 5-14.3 7.6-40.2 21.2-80.3 42.4-120.5 63.6-31.7 16.8-63.9 32.9-95.3 50.3-.5.3-1 .5-1.5.8-13 6.9-13 27.7 0 34.5 26.8 14.2 53.7 28.4 80.5 42.6 42.1 22.3 84.3 44.6 126.4 66.8 9.3 4.9 18.4 10 27.8 14.7 8.7 4.3 16.1 2.4 23.7-1.6 4.8-2.5 9.6-5.1 14.3-7.6 40.1-21.2 80.3-42.4 120.4-63.7 31.7-16.8 63.8-33 95.2-50.3.5-.3 1-.5 1.5-.8 9.3-4.9 12.9-18.6 7.2-27.4-5.9-9.2-17.3-12.2-27.2-7z"></path><path d="M854.3 494.9c-26.5 14-53.1 28.1-79.6 42.1-42.1 22.3-84.2 44.5-126.3 66.8-9.6 5.1-19.3 10.2-28.9 15.3-9.3 4.9-12.9 18.6-7.2 27.4 6.1 9.4 17.5 12.4 27.4 7.2 26.5-14 53.1-28.1 79.6-42.1 42.1-22.3 84.2-44.5 126.3-66.8 9.6-5.1 19.3-10.2 28.9-15.3 9.3-4.9 12.9-18.6 7.2-27.4-6.1-9.4-17.4-12.4-27.4-7.2z"></path></svg>