<svg xmlns="http://www.w3.org/2000/svg" data-name="Layer 1" viewBox="0 0 32 32" id="promotions"><path d="M21.706,8.044,8.85,12H6.5a4.487,4.487,0,0,0-1.291,8.789l1.518,4.554a2.423,2.423,0,1,0,4.6-1.532l-.761-2.284,11.143,3.429A1.022,1.022,0,0,0,22,25a1,1,0,0,0,1-1V9a1,1,0,0,0-1.294-.956ZM4,16.5A2.5,2.5,0,0,1,6.5,14H8v5H6.5A2.5,2.5,0,0,1,4,16.5Zm5.369,8.324A.415.415,0,0,1,9.025,25a.422.422,0,0,1-.4-.29L7.387,21H8.28l1.147,3.443A.416.416,0,0,1,9.369,24.824ZM21,22.646,10,19.261V13.739l11-3.385ZM30,16a1,1,0,0,1-1,1H27a1,1,0,0,1,0-2h2A1,1,0,0,1,30,16Zm-4.857-3.168a1,1,0,0,1,.61-1.276l2.828-1a1,1,0,0,1,.666,1.886l-2.828,1a1,1,0,0,1-1.276-.61Zm4.714,8a1,1,0,0,1-1.276.61l-2.828-1a1,1,0,0,1,.666-1.886l2.828,1A1,1,0,0,1,29.857,20.832Z"></path></svg>