<svg xmlns="http://www.w3.org/2000/svg" viewBox="0 0 128 128" id="treatment"><path d="M114.9 96.9c-.9-2.2-3.5-5.7-10-3.8h-.1L93.1 97c-1.6.5-2.4 2.2-1.9 3.8.5 1.6 2.2 2.4 3.8 1.9l11.5-3.9c2.4-.7 2.6-.2 2.8.4.2.5-.6 1.1-.7 1.1-13.3 7-28.9 15.1-33 16.8-5.2 2.1-12.9-.1-12.9-.1L42 110.6v-21h3.2c3.8 0 14.5 1.2 18.4 6.8.6.8 1.5 1.3 2.5 1.3h14.6c1.3 0 2.5.9 2.6 2.1v.7c0 .1 0 .2-.1.2 0 .1 0 .1-.1.2-.4.8-1.2 1.4-2.2 1.4H59.8c-1.7 0-3 1.3-3 3s1.3 3 3 3H81c2.9 0 5.5-1.5 7-3.8l.1-.1c.1-.1.1-.2.2-.3 0-.1.1-.2.1-.2.1-.2.2-.4.3-.7v-.1c.1-.2.2-.4.2-.7v-.2c.1-.2.1-.4.2-.6v-.2c0-.2.1-.4.1-.6v-.2c0-.5.1-1 0-1.5-.4-4.3-4.1-7.6-8.6-7.6h-13c-7-8-21.7-8.1-22.3-8.1h-9.7c-.9-2.2-3.1-3.8-5.7-3.8H15.6c-1.7 0-3 1.3-3 3s1.3 3 3 3h14.3c.1 0 .2.1.2.1V111.8H15.6c-1.7 0-3 1.3-3 3s1.3 3 3 3h14.5c2.3 0 4.3-1.3 5.3-3.1l25.6 8c.3.1 4.3 1.2 9.1 1.2 2.6 0 5.3-.3 7.8-1.3 5.3-2.1 25.2-12.6 33.5-17 2.9-1.5 5.1-5.1 3.5-8.7zM62.8 72.1c3.9 0 7.5-1.5 10.2-4.2l11.6-11.6 11.6-11.6c5.7-5.7 5.6-15.1-.2-20.9l-.1-.1c-2.9-2.9-6.6-4.4-10.7-4.4-3.9 0-7.5 1.5-10.2 4.2L63.4 35.1 51.8 46.7c-5.7 5.7-5.6 15.1.2 20.9l.1.1c2.9 2.8 6.7 4.4 10.7 4.4zm-6.4-8.7c-.1-.1-.1-.1 0 0 0 0 .1 0 0 0zm22.8-35.6c1.6-1.6 3.7-2.4 6-2.4 2.4 0 4.7 1 6.4 2.7l.1.1c3.5 3.5 3.6 9 .2 12.4l-9.3 9.6-12.8-13 9.4-9.4zM56.1 50.9l9.4-9.5 9.7 9.7-9.4 9.5c-1.6 1.6-3.7 2.4-6 2.4-1.7 0-3.3-.5-4.8-1.4-2.1-3.3-1.8-7.8 1.1-10.7z"></path></svg>