<svg xmlns="http://www.w3.org/2000/svg" width="64" height="64" viewBox="0 0 16.933 16.933" id="commision"><path d="M9.836.006a4.498 4.498 0 0 0-2.861 7.77 4.499 4.499 0 0 0 5.142.715l-.004.132a.263.263 0 0 0 .215.263l.463.09.194.423a.27.27 0 0 0 .31.146l.46-.116.361.298c.1.082.245.082.345 0l.36-.298.458.116a.27.27 0 0 0 .311-.146l.194-.423.464-.09a.263.263 0 0 0 .215-.263l-.013-.462.377-.278a.258.258 0 0 0 .077-.329l-.217-.41.217-.41a.258.258 0 0 0-.077-.33l-.377-.277.013-.463a.263.263 0 0 0-.215-.263l-.464-.09-.194-.422a.27.27 0 0 0-.31-.147l-.458.116-.275-.226A4.496 4.496 0 0 0 9.836.006Zm.357.524a3.963 3.963 0 0 1 3.825 4.111l-.263.217-.276-.07a3.44 3.44 0 0 0-5.94-2.638 3.441 3.441 0 0 0 3.426 5.664c.35-.088.205-.615-.14-.51a2.907 2.907 0 0 1-3.26-1.3 2.908 2.908 0 0 1 3.82-4.095 2.908 2.908 0 0 1 1.525 3.143l-.119.258-.463.09a.263.263 0 0 0-.215.264l.013.462-.378.278a.258.258 0 0 0-.076.329l.217.41-.217.41a.258.258 0 0 0 .076.33l.163.12a3.965 3.965 0 0 1-5.296-5.486A3.968 3.968 0 0 1 10.193.53zm-.142 1.583a.264.264 0 0 0-.262.268v.265h-.263a.796.796 0 0 0-.793.793v.53c0 .434.358.794.793.794h.263V5.82h-.263a.258.258 0 0 1-.266-.264c.035-.384-.561-.384-.527 0 0 .435.358.793.793.793h.263v.266c0 .353.53.353.53 0v-.266h.266a.797.797 0 0 0 .793-.793v-.529a.796.796 0 0 0-.793-.793h-.266V3.176h.266c.151 0 .263.112.263.263-.008.36.538.36.53 0a.796.796 0 0 0-.793-.793h-.266v-.265a.265.265 0 0 0-.268-.268Zm-.525 1.063h.263v1.058h-.263a.26.26 0 0 1-.266-.266V3.44c0-.151.115-.263.266-.263zm.793 1.587h.266c.151 0 .263.113.263.264v.53a.257.257 0 0 1-.263.263h-.266Zm3.969.339.294.243a.272.272 0 0 0 .24.053l.372-.095.157.345a.267.267 0 0 0 .192.148l.379.074-.011.376a.26.26 0 0 0 .107.217l.307.226-.177.335a.256.256 0 0 0 0 .239l.177.334-.307.227a.26.26 0 0 0-.107.216l.01.376-.378.073a.267.267 0 0 0-.192.15l-.157.344-.372-.094a.272.272 0 0 0-.24.053l-.294.243-.295-.243a.272.272 0 0 0-.238-.053l-.374.094-.157-.344a.267.267 0 0 0-.192-.15l-.377-.073.01-.376a.26.26 0 0 0-.106-.216l-.308-.227.177-.334a.256.256 0 0 0 0-.24l-.177-.334.308-.226a.26.26 0 0 0 .106-.217l-.01-.376.377-.074a.267.267 0 0 0 .192-.148l.157-.345.374.095a.272.272 0 0 0 .238-.053zm.789.981a.265.265 0 0 0-.182.08l-1.588 1.588c-.259.25.127.634.375.373l1.586-1.588a.265.265 0 0 0-.191-.453zm-1.583.002a.265.265 0 1 0 0 .53.265.265 0 0 0 0-.53zm1.588 1.588a.265.265 0 1 0 0 .529.265.265 0 0 0 0-.53zM.266 10.583a.265.265 0 0 0-.266.264v5.82c0 .147.118.267.266.266h3.437a.264.264 0 0 0 .265-.264h1.323a.265.265 0 0 0 .265-.266v-.263h.676c.03 0 .285.015.612.04.327.024.747.058 1.194.09.892.067 1.876.134 2.427.134.414 0 .93-.272 1.457-.637s1.09-.842 1.612-1.318c1.037-.948 1.897-1.885 1.904-1.892a1.58 1.58 0 0 0 .375-.53.826.826 0 0 0-.004-.64.897.897 0 0 0-.512-.495.91.91 0 0 0-.712.037l-3.122 1.506h-.232c.09-.156.147-.334.147-.53 0-.589-.478-1.058-1.06-1.058h-.794c-.062 0-.164-.047-.379-.119a2.902 2.902 0 0 0-.944-.144c-.583 0-1.084.179-1.497.367-.404.184-.717.368-.918.426h-.23v-.266a.265.265 0 0 0-.265-.263H3.969a.265.265 0 0 0-.266-.264Zm8.711.647c.182.06.353.147.547.147h.795c.297 0 .53.237.53.529 0 .291-.233.529-.53.529H8.468c-.353 0-.353.53 0 .53h3.056c.04-.001.08-.01.115-.028l3.174-1.531c.21-.101.43-.004.508.184a.305.305 0 0 1 0 .246 1.14 1.14 0 0 1-.26.351s-.864.938-1.885 1.871c-.51.467-1.06.933-1.555 1.275-.494.342-.912.541-1.156.541-.507 0-1.5-.064-2.389-.13-.444-.033-.865-.067-1.193-.092-.328-.025-.539-.041-.65-.041h-.677v-3.705h.265a.278.278 0 0 0 .068-.01c.33-.089.652-.291 1.033-.465.381-.173.805-.319 1.28-.318.367 0 .593.056.775.117zM.53 11.113h2.91v5.29H.53Zm3.44.264h1.058v4.762H3.97Z"></path></svg>