<svg xmlns="http://www.w3.org/2000/svg" width="32" height="32" enableBackground="new 0 0 32 32" viewBox="0 0 32 32" id="gift"><path d="M28.793,5.281c-0.075-0.992-0.595-2.026-1.588-3.02c-1.149-1.15-2.768-1.268-4.133-0.813s-2.64,1.369-3.787,2.363c-1.457,1.263-2.5,2.456-3.221,3.332c-0.723-0.876-1.77-2.07-3.225-3.332c-1.147-0.994-2.414-1.908-3.779-2.363C8.549,1.277,8.002,1.187,7.455,1.202C6.544,1.226,5.64,1.542,4.92,2.261c-0.992,0.993-1.512,2.027-1.588,3.02C3.257,6.273,3.627,7.133,4.045,7.786C2.359,7.797,1,9.157,1,10.802v2.996c0,1.646,1.359,3.006,3.005,3.006h24c1.645,0,2.995-1.361,2.995-3.006v-2.996c0-1.637-1.339-2.988-2.963-3.015C28.507,7.132,28.869,6.272,28.793,5.281L28.793,5.281z M7.258,3.167c0.33-0.045,0.701,0.024,1.168,0.18c0.932,0.311,2.066,1.077,3.106,1.979c0.945,0.819,1.789,1.717,2.457,2.473H7.067c-0.226-0.131-0.9-0.539-1.359-1.182C5.438,6.238,5.292,5.859,5.325,5.429S5.58,4.428,6.337,3.67C6.638,3.371,6.927,3.211,7.258,3.167z M24.871,3.167c0.333,0.045,0.626,0.204,0.926,0.504c0.758,0.757,0.972,1.326,1.005,1.756c0.032,0.43-0.114,0.811-0.386,1.189c-0.459,0.643-1.132,1.05-1.356,1.182h-6.92c0.666-0.756,1.508-1.653,2.453-2.473c1.04-0.901,2.176-1.668,3.106-1.979C24.165,3.19,24.538,3.122,24.871,3.167L24.871,3.167z M3.332,18.752v8.717c0,1.829,1.51,3.33,3.338,3.33h8.334V18.804h-11C3.775,18.804,3.553,18.783,3.332,18.752z M28.668,18.752c-0.219,0.029-0.438,0.051-0.664,0.051h-11V30.8h8.334c1.829,0,3.33-1.501,3.33-3.33V18.752z"></path></svg>