<svg xmlns="http://www.w3.org/2000/svg" viewBox="0 0 512 512" id="member"><path d="M391.633 151.257H120.367c-17.54 0-31.696 14.321-31.696 31.858v145.932c0 17.375 14.159 31.696 31.696 31.696h271.265c17.54 0 31.696-14.321 31.696-31.696V183.115c0-17.54-14.156-31.858-31.695-31.858zm-186.154 47.144c18.259 20.027 2.969 55.346-25.903 55.346-18.663 0-33.787-15.283-33.787-33.949-.001-32.042 40.376-45.666 59.69-21.397zm25.1 129.999H128.411c-3.539 0-6.434-2.898-6.434-6.434 0-31.696 25.903-57.599 57.599-57.599s57.44 25.903 57.44 57.599c0 3.539-2.898 6.434-6.437 6.434zm139.172-74.333h-75.78c-3.539 0-6.437-2.895-6.437-6.434s2.895-6.437 6.437-6.437h75.78c3.539 0 6.434 2.895 6.434 6.437.003 3.539-2.895 6.434-6.434 6.434zm0-27.833H255.997c-3.539 0-6.437-2.898-6.437-6.437s2.898-6.434 6.437-6.434h113.754c3.539 0 6.434 2.895 6.434 6.434.003 3.542-2.895 6.437-6.434 6.437zm-190.175 51.004c-22.526 0-41.028 16.733-44.246 38.291h88.33c-3.057-21.558-21.72-38.291-44.084-38.291zm15.765-43.926c12.23-14.558 1.024-34.432-15.768-34.432a20.874 20.874 0 0 0-20.914 20.917c0 20.273 25.402 28.232 36.682 13.515z"></path></svg>