<svg xmlns="http://www.w3.org/2000/svg" xmlns:xlink="http://www.w3.org/1999/xlink" width="32" height="32" id="transaction"><defs><clipPath id="b"><use clip-rule="evenodd" xlink:href="#a"></use></clipPath><path id="a" d="M0 0h32v32H0z"></path></defs><g clip-path="url(#b)"><path fill-rule="evenodd" d="m9.204 3.756.144-.539a.964.964 0 0 0-.1-.758.964.964 0 0 0-.607-.466.99.99 0 0 0-.759.1.99.99 0 0 0-.465.607l-.732 2.732a.963.963 0 0 0 .1.759c.137.239.34.394.607.466l2.732.732a.99.99 0 0 0 .758-.1.99.99 0 0 0 .466-.607.963.963 0 0 0-.1-.76.964.964 0 0 0-.607-.465l-.254-.068A11.76 11.76 0 0 1 16 4a11.757 11.757 0 0 1 6.437 1.87.99.99 0 0 0 .753.133.99.99 0 0 0 .627-.439.963.963 0 0 0 .133-.754.964.964 0 0 0-.439-.627C21.225 2.728 18.721 2 16 2c-2.44 0-4.706.585-6.796 1.756ZM7 16c0-2.485.879-4.607 2.636-6.364C11.393 7.879 13.515 7 16 7s4.607.879 6.364 2.636C24.121 11.393 25 13.515 25 16s-.879 4.607-2.636 6.364C20.607 24.121 18.485 25 16 25s-4.607-.879-6.364-2.636C7.879 20.607 7 18.485 7 16Zm6.815-3.374c.323-.535.703-.924 1.141-1.165V11c0-.276.102-.512.306-.707.204-.195.45-.293.738-.293s.534.098.738.293a.944.944 0 0 1 .305.707v.287a6.3 6.3 0 0 1 1.435.6 1.021 1.021 0 0 1 .486.607.95.95 0 0 1-.104.758 1 1 0 0 1-.634.466 1.043 1.043 0 0 1-.791-.1c-.904-.5-1.508-.497-1.812.008-.097.16-.088.367.026.622.159.357.45.652.873.886a.36.36 0 0 1 .01.006c.82.456 1.399 1.064 1.738 1.827.387.867.358 1.67-.086 2.407-.322.535-.703.924-1.14 1.165V21a.944.944 0 0 1-.306.707c-.204.195-.45.293-.738.293s-.534-.098-.738-.293a.944.944 0 0 1-.306-.707v-.287a6.301 6.301 0 0 1-1.434-.6 1.02 1.02 0 0 1-.486-.607.95.95 0 0 1 .104-.758c.144-.24.355-.395.633-.466.279-.072.543-.038.792.1.904.5 1.508.497 1.812-.008.096-.16.088-.367-.026-.622-.159-.357-.45-.652-.873-.886l-.01-.006c-.82-.456-1.399-1.064-1.739-1.827-.386-.867-.358-1.67.086-2.407Zm8.801 15.721-.064.111a.964.964 0 0 0-.1.76c.071.266.227.468.466.607.239.138.492.17.759.1a.964.964 0 0 0 .607-.466l1.414-2.45a.963.963 0 0 0 .1-.759.964.964 0 0 0-.466-.607l-2.45-1.414a.963.963 0 0 0-.758-.1.963.963 0 0 0-.607.466.963.963 0 0 0-.1.759c.071.266.226.469.465.607l.43.248a11.757 11.757 0 0 1-6.354 1.818 11.76 11.76 0 0 1-6.422-1.86.964.964 0 0 0-.754-.132.964.964 0 0 0-.626.44.991.991 0 0 0-.132.754.99.99 0 0 0 .44.626c2.281 1.448 4.78 2.172 7.493 2.172 2.388 0 4.607-.56 6.66-1.68Z"></path></g></svg>