<svg xmlns="http://www.w3.org/2000/svg" data-name="Layer 1" viewBox="0 0 128 128" id="transactions"><path d="M62,0H8A8.00917,8.00917,0,0,0,0,8V120a8.00917,8.00917,0,0,0,8,8H62a8.00917,8.00917,0,0,0,8-8V8A8.00917,8.00917,0,0,0,62,0Zm4,120a4.00427,4.00427,0,0,1-4,4H8a4.00427,4.00427,0,0,1-4-4V8A4.00427,4.00427,0,0,1,8,4H62a4.00427,4.00427,0,0,1,4,4Z"></path><path d="M40,116H30a2,2,0,0,0,0,4H40a2,2,0,0,0,0-4Z"></path><circle cx="35" cy="10" r="2"></circle><path d="M35,80A16,16,0,1,0,19,64,16.01833,16.01833,0,0,0,35,80Zm0-28A12,12,0,1,1,23,64,12.01344,12.01344,0,0,1,35,52Z"></path><path d="M31.53418 69.47656A1.9968 1.9968 0 0032.88281 70c.03418 0 .06885-.001.10352-.00293a1.99549 1.99549 0 001.39063-.668l7.11719-8a1.99974 1.99974 0 10-2.98828-2.6582l-5.77051 6.48633-1.38672-1.2666a1.99976 1.99976 0 00-2.69727 2.95313zM76 40a2.0001 2.0001 0 002-2V36h2a2 2 0 000-4H76a2.0001 2.0001 0 00-2 2v4A2.0001 2.0001 0 0076 40zM80 92H78V90a2 2 0 00-4 0v4a2.0001 2.0001 0 002 2h4a2 2 0 000-4zM126 88a2.0001 2.0001 0 00-2 2v2h-2a2 2 0 000 4h4a2.0001 2.0001 0 002-2V90A2.0001 2.0001 0 00126 88zM126 32h-4a2 2 0 000 4h2v2a2 2 0 004 0V34A2.0001 2.0001 0 00126 32zM120 42a2.0001 2.0001 0 00-2-2h-8a2.0001 2.0001 0 00-2 2v8a2.0001 2.0001 0 002 2h8a2.0001 2.0001 0 002-2zm-4 6h-4V44h4zM92 76H84a2.0001 2.0001 0 00-2 2v8a2.0001 2.0001 0 002 2h8a2.0001 2.0001 0 002-2V78A2.0001 2.0001 0 0092 76zm-2 8H86V80h4zM120 58a2 2 0 00-4 0v2h-2a2 2 0 000 4h4a2.0001 2.0001 0 002-2zM118 68h-4a2 2 0 000 4h4a2 2 0 000-4zM108 72h-4a2 2 0 000 4h4a2 2 0 000-4zM109 56h-4a2 2 0 000 4h4a2 2 0 000-4zM118 76h-4a2.0001 2.0001 0 00-2 2v8a2 2 0 004 0V80h2a2 2 0 000-4zM107 66a2.0001 2.0001 0 00-2-2H99V58a2 2 0 00-4 0v8a2.0001 2.0001 0 002 2h8A2.0001 2.0001 0 00107 66zM108 84h-6V81a2 2 0 00-4 0v5a2.0001 2.0001 0 002 2h8a2 2 0 000-4zM92 68H88a2 2 0 000 4h4a2 2 0 000-4zM92 56H88a2.0001 2.0001 0 00-2 2v2H84a2 2 0 000 4h4a2.0001 2.0001 0 002-2V60h2a2 2 0 000-4zM92 40a2 2 0 000 4h4a2 2 0 000-4zM92 48H86V42a2 2 0 00-4 0v8a2.0001 2.0001 0 002 2h8a2 2 0 000-4zM99 49v4a2 2 0 004 0V49a2 2 0 00-4 0z"></path><path d="M107.373 82.0918a2 2 0 100-4H106a2 2 0 000 4zM54 23H16a2 2 0 000 4H54a2 2 0 000-4zM54 93H16a2 2 0 000 4H54a2 2 0 000-4zM47 35a2 2 0 000-4H23a2 2 0 000 4z"></path></svg>